<mxfile host="65bd71144e">
    <diagram id="D1LB4_5WCrNHRGIF9lVN" name="Page-1">
        <mxGraphModel dx="466" dy="390" grid="1" gridSize="10" guides="1" tooltips="1" connect="1" arrows="1" fold="1" page="1" pageScale="1" pageWidth="827" pageHeight="1169" math="0" shadow="0">
            <root>
                <mxCell id="0"/>
                <mxCell id="1" parent="0"/>
                <mxCell id="4" value="Get Coffee image&amp;nbsp;" style="rounded=1;whiteSpace=wrap;html=1;" parent="1" vertex="1">
                    <mxGeometry x="40" y="120" width="140" height="50" as="geometry"/>
                </mxCell>
                <mxCell id="5" value="" style="shape=image;verticalLabelPosition=bottom;labelBackgroundColor=default;verticalAlign=top;aspect=fixed;imageAspect=0;image=data:image/jpeg,/9j/4AAQSkZJRgABAQAAAQABAAD/2wCEAAkGBxMTEhUSEhIVFhUXGBcXGBgVGB0dGBgdHx4YHhgdGB0aHiggGBolHR8aITEiJSkrLi4uHiAzODMtNygtLisBCgoKDg0OGhAQGy0lHyUtLS0tLS0tLS0tLS0tLS0tLS0tLS0tLS0tLS0tLS0tLS0tLS0tLS0tLS0tLS0tLS0tLf/AABEIANgA6gMBIgACEQEDEQH/xAAbAAACAwEBAQAAAAAAAAAAAAAEBQADBgECB//EAEAQAAIBAwMCBAQEAwUIAQUAAAECEQADIQQSMQVBEyJRYQYycZEUI0KBUqGxFTNigsEkQ1RyktHh8PEWRKLC0v/EABgBAQEBAQEAAAAAAAAAAAAAAAEAAgME/8QAIxEBAQEAAgICAgIDAAAAAAAAAAERAiExQRJRobEDkSJhgf/aAAwDAQACEQMRAD8A+k1JqVK8b0JXm40AkAkgEwOT7D3r1XlnA5IFKAN1G4P/ALdz83E9gT3UQCYAmOfartLqnZyrWyBG7dmOYC5AMxnMdsUMtm/keOsEsRwSAQdvK59R6Ry04J0a3Fnxbgb5YiBwIbEDk/8Ao4rtynHOs/LMF0sTqjtu22GIVtpgn/D/AIc8mYnjk8hmDQeqdmANq6i/MCTBEwQP3DD+R5rHDPcNUr1K7/w7xj1nl5J8voqn/NTC2xIBIgwJEzB9JgT9qA0S3Nwd7qsm3EHmdmTAAPB+/amAPvV/JnqftQNr9Q6AFLZfMEDmIOfbMf8AzVLa+4J/IcxPE58wH8Pod3fg+k0XeaQwVgGgwZGMGDkH+h4pbdS+fL49sTuBjByp27cSIbMzmPeBrhONnefkUz09wsoLLtJ7TMfyFS/dKiQpbIHfE98An+X/AHr2XHqPv9q831YqwUwxBAPoexyD/SuftosHUb+0H8O27ahPvm3uCj18xiTjaZ4IorQ6t3LKyFdpMHMEbmCYOZgSf2PfAl03ihK30khtkbYJOU5XECRyQeT6A/RI43b33S0jjAgYwBPrPee3Fdec4/HxPyzHrVXmUAqpaSBjtM5444/rQa9Suf8ADviZ+Ydh8oKZkkj6CfamVLh4pyLy7SVIjbIXeDGVzK+WcR7kyM8M9z9mvFrqV0yDYbEZ8wBkMcSkmIUcT5uJxR+kuMyKzDaxUEjIgxkZz96C6ct2fzLqsBuUgR6ypwo/TGPc5zAZVfyZLkk/4oX3eoXBIFhiRJGTBhoGduCR5ozj71xtfdk/kNyw5OQMg/L3gwPUjNXarxNw2XFAjIMSSGXg7TGJHfkY70HeS+P9+oEEE+UeY7VUfJjzH27TNb4zjfU/IHdP1fipu2lckR9OeQPcft3rxf121o8Nz5lWQCZ3RnA+UTz7GjJobVrdMeGVAzunvxEGDB5HHee0HnPjeXghx1NpANm5kdhME7NskYGWg+kEmBRekvl0DFWSf0tEj6xx9KBvpqd0B1AYOATGDuOwARk+GfTkZxgs1mBNPOcZOsUB6nXlGI8J2A7j6L//AEPsfSqf7VbdHgvHlzHEgk8wIH3qNb1MD8xA0N+5hQuCMCZJA9e9eVs6g7S7hcpIBgxILjAiTkfSO+a3OPDO8/ugZpNUXLA22SApzwZ3YB9o/mKLpVYtaiUDuhAPn2yDGIGRJ7+mftTT71y5yS9GOVKBv9SCvs2OTJGAIMKrYM/4gM+/pXo67G4ISNi3DxIBDHjufLHPestZRlD6nSK5BYnAIEGOSpmR3wIocdVEkbHwQMx/DujnnkYmSBnNMKpcFn2XJ0e2I+YgbIEmBtECfWRzXbfRrKgALwZyZzIMye88nvJmar+INVdt2t9mNyy534tbFBL+I0eQRwRmYwRNMrbyoMESAYPIkcH3rXy5fbPxjw1hdnh/p27Oe0Rz2xQy9LQEmWyQTLSJBJ4OBklsd4PYUdVOs1ItoXIZo7IpZj2AUDkk0S05A39j2uACBkQGIETJH09qJ0+mVAQoicn6wBP1gClHwvc1A8S1qGDlCCGkF13S3hXCAFZ1QoSyiIcDMSXtVt8WqSAF6PaG0AMAvyjcYHI78xJ59TXW6TaIggkQBk8AREHnED7n1NGuJBAMGOR2984+9ZLR3tTvbZqL15vGuIiOlnZstlFuNcYKhHnLCVM5EKYNM5cr7GT6aD+yrckkMZM5Ykfq4HadzfejjUqVm23yZJAI6TawNpgCInt5vv8AM30ojS6Zba7V498ngD+gA/ahrHUS2pu2Nh220tMbk4LPv8kRyFUHnv2o+m2+1JEpevR7QAENAUqAWJEHnBphS74g6l+HsNegHabYzMeZ0Xtn9VUt9Kye1q9Mthg0GRGZOYO4TPMH19qMqGpRbb5MmAj0q13Wcs3PdsN96rTo1sAgy0iDJ5GIn1iBEzEe5m3qvUk09s3Lk8hVVQS7sflRFGWY9gKu0dx2to1xNjlVLJM7GIErI5g4n2rXy5fY+MTTaZbchZydxkzmAP6AVTqenK7biWGVOCP08ZiQO8Tz7zRlcJjJxGSTRt3VkADo9vHzcg8jtv8AQY+Y/wAvSitJphbUKCT7mJ9BwB2AFKOg9Tvam7cvBVXRxsskg77xnzXQf02+QojPOKe1W3xVJPQTWaEXDLMwgQNuDmZmZmcfaq16RbBkbgfXE87hyMxx9MUfS+11AnVXNPAhbVu4DmSWa4GH0ACH/NVOVWQTo9ItsbV4JnP0A7fc+pJoiuV2i3TOgjNdDGACpYR6gQJ75zP/AJqsXL/8CEx27GDj5s5j+dX3NWgO3cC0gEAiVniROBFdbV2wSC4EepgenJxzP2rOHFluY80T7cc4NeqHfXWwJ3gjE7cxMxMTHB+1EUgF1iyXtFVEy9qR6jxEL/ttn9qNNAdZ6tb0yC5cnLBQqgliSc7QJJhZY+wNXdO1y3kFxA4BLCHUo0gkHDCeRT6QmpUqu/eVFLuwVVEszEAAdyScAVIJ0yyVbUTPmvFh7jw7Qx68R+xo+lfSeu2r8BTDHfCkNkKxVipKgMJjj1ppVVEFZ3oll7ZsllYeI2r3eU+Uvea9b3fwjbvEnElR3FaKkn/1Lb8Rrfh3Wi4qbkRmUyuGmPlLhrcicqfeGCndBdX1F23b3WLPjXCQAu4KBP6mJ/SO8SfajalBZ3+wLqIb1q6BrTLvcIPh3Tj8u4o/3QACr+pBkGS267oHWr952tX9Dd07IMuxDWmMgRbb9czOBiDOaY3Oo2xfXTknxHRrgABjapAMntkjmi6d+wlAavStduIGEWkbcQYPiNB2yOyKTu9SwHAHmPqjW6pbSb2mJVRHJLMFUD1JYgUQhuk27yA2rgDImLdwNLMv6Q6nIdRgmSG5xJAYVKlSLX6QHvtfutvG3ZaSIW2CPzDz5nY/qxAgDuSobpnUbN1fw2qt3dOSJTVhi9sd9txPNc9t5kY55rUOwAJJgCST7UN0zXrfs276SEuKGXcIMHjv35/enaMEW5gbomMxgT7T2pX8T9JfVWfAS94Ssy+Idm4ugMlPmEA4B5kSIzTapQSK30nVW/Nb1zORH5d61bFoj0HhIrJjggmPQ030lxmQF02NmVJDRBIwRgg8jgwRIBkV40etS4qsp+bdAPJ2mCQJyJ7+49aJqqebjEAkKSfQRJ+8Ck93pt4A3kKHU7/Egk+Gw2hfBmJC7VHmj5xuiJWnVUJqgbrWgDuVUcmPLDFwon18pMfT1qiW2mJALDaYyJmD6T3r3XK6KEV6o2d7bkYsCGJEjIAAzuE4249xXX1Fo+VkaC5ieJbBIg8eef3NMpqVdraB0+ltON4QjcNuSZgAqO5AwSP39aOFSpUma+L9NcdrapeVBcS9ZYMkwrKDcubiQF2qvMHJA74bdC1CPYRrYYINyDd83kZklpzJ2yZzn1q3W6excKLeS25B3ILgUmR+pA3cTyKIRAMARknHqSST+5JNa3oY9Uq+IlPhqQyDbdttDqXD58qhVIJbdtI9wOOQ1oXqKWmUJe27XZQoYxLDzLtPO4bdwjOJohKfh1GW4yXWBugPc2qAFti9ddyuC0uYUnzEDEYy2goexobaEFECwGAjHzEFp9SSAZOefUyRVaogrG6LpG+5YPiNul76sWebapdQtZRd2wodwGV8sDkwRsqVWdfpLj21S9aLgs1sI4BaQ2/aAfOCJJ5GJ7YZRTWg+qaS5cUC1qHsMGB3IqNIzKkOCIPt6UZUoL5zdXxNaFGp1MBravqnti21tx4uyws2FQbmbBMg7mUgllnY9N6Zet3C9zWXbyxAR0tKBxk7EG4/yyabEGuRTeWiRKSdfVN1thbS4ytvNoAG5cgEIBg4DENLQoKqSQAad153Adx70Qk/wzbUIZt7b4xe3LDSxZ9qt+u0CzBIJAGPWnVeVcHAIJGYnieP9a9VVMx8caq6bZ01kZu2na4wG5ltBrSXfDUGWcLcLYn5Tgkiqfg/pWlu2FvQNRFxzau3m8VwquwtHzE+GQoBgBYxgGa0mu6davAC7aS4BMbgDE8jPY9x3pfptVoBqStt9N+KYbSEKeKwAkho8xgDg9h7VresGdnNDdR1osoX2s5lVVV+ZmZgqKJwJYgScDk4FE1RrtNbuIUugFMEyYjaQwMjiCAZ7RWSxnwzY1FzcWulDpFu6dVtKjDfuBdSXB8XypaO4bJLEeUg1tNEzm2hugC4VUuFyoaBuAPcAzSv4cfRXA13RJZhCbBe3bCzs2naGgb1EiCCR9qdU8r2I83AIO6I7zx+9ZLUBVuM3hb7Pim7du2U3LsVYS2ABuYSFLBN4w8xuga5vfj3rniD1H3olNcsW1VVVAAoAChQAoHYADAEdq91xWkSMg8R/pXqhARZAus5u8lTtmIhSADnPdsj+lVr087U23WBCwSCYcwoDHPoD/1E85om7orbEll5yckTiOx9MURV2doPSaHY24uWO3aSRBb5IJ9xtJ/zGjKlSlaz/wAVWUuNp7V2yDbN62TebbtQg+VRncHcwgMADfzMCjOhMwF60WLizdNtWYksV2W3AZj8xXeUnJO0SSZNW9Z6c19BbF0213KzFFBc7WVlCk4QyBmD+3NE6LSJaQW0WFE+pJJMkknLMSSSTkkkmSad6Z9rqR/FyIbdvxGRUF5Ja4qsiyGA3B8EEkL+9PKo1ukS6ht3FlTHcggggqQRlWBAIYZBAI4ohpP8LlZuqrW2A2QbIdbZUhuFZ2UGQ07e0U/oLS6a8jQ1/wARIP8AeIPE9vOpCkD3Wfejaqop1tstbdV+YowH1IIH86x3QtaA+kFprKhiLb211Nx3EWnO02bijYylRMQREZFbehOpaLxVgHa4KsjxO1lMrIxK9iJEgkYmmUWC6o1zqLblwzLBDBVZyQcEBUBZvoBVy+/NdoL5udCx/FXUsOiF3NtWsOsIttAIVtKxWWDNhhzwDNab4HuWjprQto6v4NhrjNbdQ7FB5gzgC4TkypP86f3rQZWRhKsCpHqCII+1c01hbaLbQbURQigcAAAAD6ACtXlsEiys91QWzrLRBtyLN8OSUkEtptoaVbJAMDnBrQ12azLhKPhxk8IBRBlyTsIB87j5toDH2H2FNqr09kIu1RiSeZ5JJ59yasqRR8W9QFjR33LIreGypvK7S5BCA7sHJGPrSL4UZG1am29xwmlYEsoVPNct7fD22rauIU+ZQQfWtjctK0blBjIkAx7ieDQ1vp4GofUbsvat2ojgI11pnvO/9tvvTL0MGVRrNJbuobd1VdDG5Wypgzkdxjir6G6hokvWzauSUaNwBIkAgwSM7TEEdxIoLFfAWqu3hffToltbjhy9wNAYlySqDbvlSsGQAIGYitroNOyLte690yTucKDnsAigBR25+tD6Dp7W7164XTY4tqiIm3YqBgJO47jmMADyjFMaeV2iR4vMoU79u3vujbHvOIrKaQJtszsI/EPgBWMF7sYW3u9O9a6q71kNt3Cdrbh9YI/1NEqsdsOCqlQQCAQCpUgdpUgFfoRirK5UoJfrLmolvDRSvC8bvl5y0fPiI4q1zd7QMLgiQZ5zI49O8D1rraU7iwuEAkEjPYAevtP/AHqWtKwIPisQIwe+ADyfYn9z7VbTobxdTCzbWZTdtI4M7+WPy4HeT7UXod+0+JzPt6KTxjDbh7gA96IqUq1mvjVbpRRbDQIkzFsszoiBwGDNk/LG2CZIMEWfAtgrpEZgQzhWMiJ8o2kQBMiM5J7k0f1y1edDbtBNrK+5yTutkRsKIB+YZkwSuQPWvfQrVxLCLdEPBJAAG0FiVWASBtUhcEjHJ5p3/Fn2PpP8V+N4G2yWBZgrsm7eqQxO3YrMpJCpuCnbv3RinFD9R04uW2UjdOYhTMZ4cbfvRPJIPgfWs9t1ZQoD3IUgqy7WKEFcoZ2ySjEBiwMEVp6R/C2kuWluC7b2MzsZUrsIU7EgIiQdir+nIIM/pV5Ty8ieHHBggGDmD6Hsa+efCusBvh7l+0Ai20Ie6ZL+cFk8VSXDbl/MVgGlYY5Fb/U2A6MjTDAqYJBg4ORnis5pPh3aQ7Alne5bfIO6yy3Ad8YO47HjhYVFgLl45irUVTrNStu29xzCorOx9AoJP8hXNAri1bFwguEUORwWAG6PaZqjrPTxftG2Y5U+YErg5lQy7sTyYmDmKyWTXr+oBsq73Nz22dxbW2VBHh4SLTHaCxHmk8ZBrXdHuM1pXZnJaT512sPYjavHrtE80qu/CyOxLG2ATdA2WU3hWChPPc3HchBaRAOJGMlaDovhXzdR1W2UK+ElvaCZUh3IaGYQQIUfMa1cE03rN/EHUbtt9QEeNumR0EoIYnUAkBssTtXGeOPXSUDe6aGLlrlzz48rbdo2gAKVgiCN4PIYnMYrMNeOlasO1xS6sw2mA6t5SIDQrGAWDCccHHcsaX9N6cbdy7cLg79oUAEBVBuN+pmk7rj8QANoAEUwqqhJ8aXSmkdg7JD2PMjBGH51oGGbyiRI82M5xSv4Z64luzOouXCz3XHiFbrptLlbRZxut2wQVAhgp7TzWk6hoVvAKz3FHcW3KbvqVg/YilC9Eusbdm4bf4W2/iQGuNcusDNtX8QkqqtDHzHcQuFEg6mZgvloq83FJBAJUkGCIkH1E4ke9ejXm6SAdoBaDAJgE+hIBj6wayWP0z3Px6aa51C4zWkW6wbwrYultwVFRVBZYBZp3QdsRWyrJN0DW3rV6zqtRYZLrkqfC3PaU8C23kG4Y2uQYImDxWsAp5COkVn11z7QWN4RfuA/lNAtI9yC3k4ZUXI/iFP3UEQeDSzrHSPFtm2mxC2CzJuIBwSmRtcDg5g9jRFTK24YBhwQCPofrXua4BGBxXf3qIG71NFfYZncq59W2xHqfMDHoT6VH6iFgsrAFioOOQWB7yANs/vXpzdDNtAIJ9hjaonnJmeewq2ypKw4EzkRgwZBjPsfrRp2PGh1y3RKcc/XLDt7qf5etE1KlKJfiDryWITcA5G4zHktiN7gEjewGQgljBgGKu6F1XxlKsV8VDDgehgowgkeZSCQCdpkSYkretdGdrxe20td3KFJYIqm2quzbCCQGS2dsw0xidy+vhrprLde6SyEG7bayx3gE+DsZbhO5gbaKcz836YIrXWM960lBdW6kthNzBmJwqqpZmPAACgnmMx/pRtZv416S99bQRFZgzfOSETG7cYI/Uirzwzd4jM8mrOjdf3Mlq8QWcEI6oyq7KSLiwZ2suDzHmjlSK0FfOfhTRTf3eAvhkI+1lcXFFx3ZHXeBJUi2DsMAQZYwT9GrXKSUSpPrxWY6X16+9y2Liou+CUCElVJYKxfxICmJBZVYx8oJitOXAySABkk4AAzmeK+VaLpRtsp2HwttpGugEglWYkKhO4MUO4KwOcCHgVcZqr6rXi/dCqWMkAT5QSf2Aya9hpyODxVGuZRbcuAV2tII3AiOCoywPEDmYrJZu/8S3Vu+HGmAa5Chrp32rYC7zdCKy75mFDTDDHlY1pNFrbd1d9ptyyy9xDKYYEGCCDgg1jdP8OXk8KHuE27dsDy3gv5jKrSPxgAa2F3MogQYzgDRdAHhKNKbbhkBO/YfDu5lrgcSoLFiSrENJOCMnVk9Cab0p6r1kWmCrtMAvdJmERYngGXyuOwMnsC2pF1vpbahypQhNhtbpTIcEswBBI2lUHYnc3oJzP9qmXTdcLqkwVdYDoeUYqrbSeCYYHGM0XSfoGke2bpe2V8U27x8yEKxtqj2wEAjbsBng7pHcU4qpVavVJaRrlxgqICzMeABzSzoXV3vMyPZNsqltiSwyzA+IoUExtxOTloMEUT1sBrRt7ijXPJbZULlHIO1wAMFfmkwBHIrOdO6f8AhbyXWS6/iO4RbduAhuMq/mBnLkIiqJA2gbmMk4ZJgbKqNdrEs23u3G2oilmMEwBkmBk/Sr6E6u9kWbn4hlWyVK3C5AXa2CDPrMRQSrpPxHu3rqhbsXA07N+7YjZt+MwG21cI/SWzBIrQA18p6H0+/dg7L97T7FtFEXwvHRWuMGuNe8MBXLBmA8RmMjcASK+oaS4WRSbZtmPkbbK+x2Er9ia1ykglWXHCgsxAAEknAA96R6T4kViCyQjbmVpGLYA2tcBypY8LE5zwYeO0CdpaMwIk/SSB/OssnRrwTbD/AN2LfA7Gf+Kj+Ue1ExVqzXZquy5ZQxUoSASrEEqTyCVJBI4wSKsmslTc1KA7SwBzic9j/QgxUXUoRIYHAPPY8GOc0DqxZLsGVtxKgkEjMKwiGEGFXOOBmqrbadVOxWyBxM/pVeTgyqx9B70fKHoy/FJE71j6j3/7H7GvSX1JgMCfY+0/tjNLr12wxJIJOQSpI4Ug/KYwrNkZoux0+2kbVjaABkmIBA59ASP3p2LpdqL620a45CoilmY8AASSfoKsFY3rfi3L922s7NR/sQnKAqq3WeP+RtQD3JRRR+g6utzVqYKk2RbcE+VLwYt4Jz/eAbzgZEeonXx6Z1o64RPNdrMfEPVHt3jcVyF06q5tAgHUb58RVBEsUQArBEsY9aJNNaXBM4JEj3HEj27Y+leqwmnOwfh/HVfxIW7evW7gm3cg/iIM+UsfDVY7Fo+Wtf0fUtcsW3eN5Qbo43cNB7iZg+lNmCUZVLMhJtnaTG8oY4n5o/5u/rS/4qX/AGZz2R7N1oz5bd23cf8A/FTQI61a/GC6CDY8PwfxAI8LxS27Zv44/VMbjtndiqRVpKlLfhy6X01p2JbcCwLclSSUmf8ACVq3rOouW7Fy5ZTe6jcEgktBEqAMlisge8UETcvKpUMwBYwoJALGCYHqYBP0Bqysj1VtZfu2LtnTOiWHNwC86K11j5CNoLFR4RugTB3MpiAZddP1967dIbTvatqgJ8WNxuEnyqUZlKhRk+rD0NODTSq9TfCKXb5RzAn24GTVlIeqP+ZfEOZtafaArEEh7paIBExE/t7UQnxqUu6be3XdQQSRvQCZH+7U4B96Y1JKG6f1C3eDNafcFd7bYIh1MMpBAIIP+lA/EXWPw4SSiByV8a7PhW4EjfGST2EqDB8wMAofh/rBshLK22vPe1F5y6K1u2d9zexQXfMwVWLEiVERukiXOhra1xlBwQCPeu0o+LLt5NJdfTqzXU2Oqry211YjGTKggjuJFBNlaZgz2Pt7Gu1h7uj8a3f1v4XUK+qs+B+FMDe36Lrx/dERG5iIA9SBWn+HtA1jTWbNxy7oihmJmT3ycwDge0U2YNMaqF9d5tz5gquRHYlgM8cqa5q/7t/+Vv6Gsxr9RFrUMPEH+wBQ21wdwF8mDGGEg/vVJq1ra7NcIrtZLlSgr2nJZz4vKsAD+mRbAzPqrH/P7V4v6EtOy8yqRAyTmSZB3c/0qOQwqVXp7ZVYJnLH7kkD9hirKgBvdG0zsWfTWGY5Ja0hJPqSRJqJ0XTAgjTWAVIKkWkBUggggxggwZFKusqrajbfKbfDQWBdZktM5Nzxcgw1wKEgHIExy1XdFtIt5ltEbRb/ADVS47otzcDbCljAYqXLAQY2T2rXoHtdmuUl63eHjWrTuUR0u7R4jWxcuDw9iG4uV8u8wOcmDtokJ3NcrNpaazteWt3XuIotfibl9bqkjcFF0AqQu5pUCNskkSK0lViSlZ6Fo9+/8Np98zPhpun145ovqjMLN0253i25SOd207Y9TMVkdN0S2dOtz8B0xrRtBzcdyzMNs7muHTySRkvMz96YK29SguiBhprAad3g2t08g7FmZzzV+sVjbcIYYowWPWDH86CuqV816Fe8TT2ndkLlF3F+salG3AQ25APIZBle3FOvgm87ajVjxJtWxZRVGofUIHIZnIuXBun5QRwK1eOCVsKlSlGssbtSB4Vu5Fk4udvOOPI1ZJvUpZ0W0FOoGxU/OHlT5R+TY4wP6UzqSVCmZjPE9/vSvrGqKXNKgI23bzW3B/UPBvsB/wBSrSHTdLFm9pGOms2bv4m7bLWTu32/w98jcxAbJAO1uNopwa2VSpQXW3uDTX2tGLgtXChwYYIShzIOY7UEbUrE6rqbfh21N7VPYuva8bT2hhACJtIQVi/dbG5JPzQAOTtLZMAkQYEj0PcU2YteqkV0VlLejH4K23gWf7u0d/6v05/u+f3/AHokTVV2uGu0INe0SMSSOeckTx6fQfYelXIgAgDGT9ySf5mg72pvBmC2twBAB3RPyknPYAnPqK9I12FkAHbLYmSDxONpj+p9KsODKlKhrNTBI04JEx5okgwBBM85n0yJ7maR7hLbwBnED/E8dzPlCH6k/QKsXXbSsNrKGHoQCPsalq0qjaqhVHAUQPsKVfE+8W7Zt3ntN41hNyQcXLqIwIYFThsSMGiekat3DrcC+Jafw3K4VjtRwygklQVdTtJMGRJiTZ0B9VanTJcUpcRXU8q6hlP1BwatpT8VaUXNLdBLqVUspRmUhgDBlGBPPExVEK0PSrFmTZsWrZOCbaKpI9CVHFGUl6fe2XVRbrPZc3UTxSS6XLTEMgZvM6kLcPmkjYckEAOqqo83HABJIAGSSYA9yTxWZOo6UWNzZY+aTd8A+FumZN3Z4c7oMluc1pL9lXUq6qynlWAIPfIOOYNZi7rLdq8/isoRNRdUqxzcW7ZS4Aic3iXbbtUE+2KeIrV1KX/D9p001lbgIYIBDGWUfpVjJlgsAmTJB5phQVDaO2cm2h/yif6VZatKuFUKPYAf0rDdT+LLtrVaiy16yotsoQRYDbWRWG439Vak5jAPHuKbfBPXbuqGoNw2ytu4ERk2y3lDHd4d24mJAlW9eDim8bmjWmqi7o7bNvZAzRtBImBMxBxzV9LOqaordtLvKKy3SdptgkqbUZuCP1HjNEI7T6ZE3bFC7m3GOJhVmOBhRxVtAdGvF0Yly0XHAJ2TAMD+7G2j6kF6h0+3fUJdQMAwcZIhh8pBBBBHtSzT/Cti3ft3rM21SW8JMW2cqyC4R/GEZwSOZE8CmnU9ULVm7dMflo7548oJz7YrOfC3UL9zVX7d287i3atbpW2q+I+W8NVXeqqPL5iZ+1M3BcayvNxAQVIkEEEeoPNeq6KyQJ6RYJtsbYJtBRbDSQm35SqkwrAY3AT70bWFTq+oRdJeuXn/ANo1CW7YRU8HY92Nl0mbhum3uYMIUbAPXduq1ZgiCgh0qyEFvwl2gADGcRHm5nAzNG1mk6k5SfGcN+Ia3ANmNo1JtgQRv+THrRFWlNdrldoIW5p3LEi4QJGO0RBH7nM15TT3MTdJiJxznP3GP51y51JA+yc7lU+xJUCMZPmX9jNeb3VEQS4ZVkqDGCQWBAjOApP0+lWH40dUoK11JWYBRImCR2MwMeh7Eeho2lZhb13TXbiKloJPiWnLXC0L4dxHHlUS8lYiV+tE9P0YtLt3FmZi7seWZuT7DsB2AA7UJ1frtrTh9wuO1u2bzLbQsQg3eYnCgeVokiYMV60HU2e89l7Jtlbdu4JdWJDtcUA7ZAPkPc8094yZUr+JGf8AD3Et23d3RwoQAw0YmSAM/wBKaUt1nWAlzwltXbrgKzeGFhQxIWS7KCTDYEmBxxJC8aPSs9xbrW/CVPEKWyQW3XDLu+0lQx80AE/MxJzAa0l0nxLZcIxS8i3ArKz2zthvlLFZCA8S0ZxTqq6leovBEZzwqlvsJpb8PdPCW1vOA2ouorXbhyxJElVJyLayQqjAA+pphrJ8NoVWkEbWbapHeWgwIntWc0/xUJ2KNLAVYYavyEElQA3hZOP6etMn0Gppd1jR37gUWNT4EE7yLauWHaN+FIPfNHWixALABoEgGQD3AMCR+wqrqF90ts9u0briIthgpbOYLYGM5oIfpHSEsIVBa4zsbj3LsF3YxJYwBwAAAAAABVXRumNauap2ZSL14XEA/SBbtpnHMqeJxHqaE1fxDdtC34mjZTduLaC+LbJBaYLQSAuDJmjdF1C89zY+lZE2k+L4ttlJkQAFO7Oe3ansdGdCnSTd8ViJCFEHYBipcn1JKr9AvuaKpdr+qi0WG3dtCsQCZg4BjbAz79qIV3TdMyKQ7KzM7uSilVyTAAJJ4jvzNF0JotYbjONoAXb3MyROQVECNpGTM+2S6qi/rXT2votrcBbLDxgRJdBnYOwDEANM+UsPelvRuk3bWu1V1ght3VUrcB87EM5CuD/AG2CMbVTvT6+5CnaAWg7VLbdxAmJgx9YMVlOmfG6m293VILKLc8Pdb33EXzbPzLoUWz5v4CcETFM3Bca+uGu1KCy+j6Lc2aHTugFvSeE7XJBFy5btlVFsA7gNzFizBT5QI8xjUUk13xB4WpXTvagMJDm6mVjJW2CbrHd5YCx7000urS4CUYNB2t2KmAYYHKmCDBE5FN0RbcmDtie08fvFLrvS2Fq3atuoCujOzpLPDi45EEBWYg9iM0wvPtUt6An7Upfr6gt5MLbF0sSdu3z5kJONpnFENOa7NeLZMAkQYyAZg9wDiftXupA7juHxbBBb5sfwrk+8+X9qt0xJUblCnuB7/wDpqxrgHf8A9/0ry99REsBPEnngf1IoxPW0egr1Xk3B6j711WB4zyPtg/zqRTrNAj3rwZWbxtMLTDhCqtcxIyGPit34FEaZLhurca2q7rChz+oODISZyo3P2570TrNWlpd1xoX6E/YAEnGfoCe1TSapLqC5bdXRuGUyDSl1KL2mYX2fwtys2mIM9wXDNgzKiD6Gab1VqtSttS7mFHeCf5DNUTPnpbjStZFshjpHtBgRgruFtQBjO6QfatIpMCee9AabrNm4wRHJY8eRwPuVA/nTCmiFvxFb3adkid7WkIiZVriK4IIIjaTMgiJmlFrQXww3y1zaGYLfYmJIgF1Ft8T5CipngHNaa/eVFLsQqgSSeAPWgP7f00wLoYxuhVZjHrCg4qlqq/pFvbZtp/CoX7YHPsKLFV2LwdQyzB43Kyn7MAR9qsoL55rPgzwjp13Wybl8qzCyCQxTWP4jMTLc2xGPkH7ar4W6U+mt3EcrDX7txFXhUYjaPqYLH0LHnmr369YBALOCxhZs3fMYJhfJ5jAJgdgTRml1K3BKzH+JWU/ZgDWrbnYki6kXVemvcuO6gYW3tkDJ/NB2mZUgMPYgkcwQ9obVa+3bne8QJOCYHvArMIPoemZDeDJtG8BcKAwCqNyhWIA+2ZwOKa1Tp9UjztMxzyD7YOY5z7H0q6qoh+KOiDUbHZ7myyt5jatgE3SygKCCRuAg+Q4aYOOUvwD024yXjqbe5DeYhdQVZkdGMHYF2K+clSAIUAYJO3ZgASSAAJJOABySaG0Op375tm2VdlhihLRHmGxjAPo0H1FO9YM7FUF1dL5tEaZraXDADXAWVR+ogDlgJIBxPOKNqUFi+kLaHULlnT3dtxLFxL7uQb164TaZHKnL7AW8xAUbtq4BA0vR+mCwrjxHuvcc3Lly5G5mIVZhQFUBVUAAQAKvTUDxWt7CCFVtxKQwJIAADb+xyVAxgmiKbRIp1ik23AEkqwH1gxWV6j0S6Ld7bbDltOFUKqSXZb6kCWUKw3iXHInBJNbCh211oCfET/qB/pVLisEtUrldrJKdXYs73LhpLAsQTyBbIGO2Fb6z71bZa0GVVE5dY7CfO0z7ijyo9BU2j0HrV2doC30ayoUBTAO7LE5xkycn+smjNPYCLtXj3/8Af2/arKlKttLPiK/aSz+dZ8ZSygWwoZmPMqp5KqGbGfKYzQ/wpaW2l6wgGyxea2pHdSlu4o+qq4T/ACTyaZdR6fbvpsuqSsgiGZSCJgqyEMpyRIPBI7170ekt2kFu0iogmFUQM5J+pOSeSTTvTK6k/wAVG6unuXbWoaybdt3lVRgYE+bepxAPEU4rjKCCCJBwQeD/AOKJ0SIae4uoSyddqmJRruV022FZBDRYB82/t6HNPqD6f0qxYnwbSJIAJVQCQPlE8wOw4FGVVQL1K1ca3ttNsYsgLSQQm4eJtI4fZug9jFfPTZtjWMWRvCVZZm0rgqN5gszHcCRgOxk5NfTKXXOi22uG4S8F1utbJ/LLqoVXIIkkBVgTtlQYkTTxuCxf02wyW1R33lZG6SSVk7JJySF2gk8kE1OqaTxrN2zuK+JbdNyjI3KQSPfNFVKC+b9S02mS4w8DFub43Wb67E23LYkeAwVAXkQRlFOIxqPhfpaWybiBlYoiOGtugO0uwI8QAtG9hMcRxwGer6RYuFme2CXUI2SNyiYVoPmGWGfU0YBGB2rV5bBI7Wd65ftrc8Mod1wZCvbBfAXcQTO1RA3MABH0rRV4aypMlVJ4kgT9KzKSv4fvK4dgvB2lyyEmJ8jbSSCvMED5sU3riqBwInn+ldqqLeu9Kt6hFS67C2rB3VWKhwAfK5Gdkwcfwis18EdIsO13UbVbbfdrcW0RrZiGlrTsLoIPDHHpmtvQfTOl2tOu2ypVfQszdyf1knJJJ9Sc0y9DOxleL9oOrIZhgVO0lTBwYYZU+4MivdSsljH+G9Jd1V20viB0tWgxdPEZfM7qyXdQHkkFgYn5RBBWthZtBVVRMKABJJOBAknJPucmly/D2lF46g2VN4v4m9pZg0AAjcfKAAAAMCKaVq3RI8vwcke4jHvkEVmrXXlNu5f8dmsyNvhhWdbfDXWhON2Y7KJ5O2tPXZoheLaQAJJgASYk+5gRP0Fe4rlShFt5NQHcoQynKho8uLQIHEgxcOTgz6gC3Rm/ui4F25giJ5x/L/8AX3qVKUpa1fWShBy2GYnEtEEnB27R/X1r1cfUboUJGxSSRjd5twBmYkD9jUqVJzdqf4UOceoWOTnmeY/apOpjhSQTxgEQ0d+ZjHHFSpUlafi4/QSV78BpaBz8oED1JA9zRP525cKR5Q33bcRn028d6lSpKGGpG4ja0ltoMCBu8nHbbg1ZcW/tRQRwu9sTz5ojicRHq3GKlSpKr6aoMzIQR5toJEZIAnHCgSM53n0rtz8VIgLgkwIGNpgGT2JHHMZiuVKks034ncpfZBHmA7ZxGfTP1ryW1WcIMgAcmM7jyBPED71ypVqXBb25ASNggsRyccf9Uz7BfU1Rdt6nO0/pIyR80/Mo7CIgGP8AUypUl963dk7SRlIMjaF8m4R3b5zPoRntVKHVYkW8sZzwvaM5zOPQVypUsWo2ohtyqPy2iDnfnbj6Qe4rxes39x2sSu6RkA7e68DzHAB7QZOcypUnqzZvbSrmSSPMGgjIkrAGNvY9x3muae1fk7mxtMZHMGfu0EegxjipUq1R4t2b+0gkztO3zDBg/NJM9oyeO3YvSBwYYGNo5zmWn9THiO57cVKlWrBVSpUqSVKlShJXZqVKZE//2Q==;" parent="1" vertex="1">
                    <mxGeometry x="590" y="20" width="234" height="216" as="geometry"/>
                </mxCell>
            </root>
        </mxGraphModel>
    </diagram>
</mxfile>